<svg width="22" height="22" viewBox="0 0 22 22" fill="none" xmlns="http://www.w3.org/2000/svg">
<path d="M12.4203 15.7068C12.4203 16.6937 12.4203 17.6805 12.4203 18.6673C12.4203 18.7547 12.4203 18.8472 12.4101 18.9346C12.3998 19.1042 12.3176 19.2122 12.1428 19.2379C12.0657 19.2481 11.9886 19.2584 11.9166 19.2584C11.1354 19.2584 10.3541 19.2584 9.5729 19.2584C9.19769 19.2584 9.10004 19.1608 9.10004 18.7753C9.10004 16.7245 9.0949 14.6737 9.10518 12.6229C9.10518 12.4328 9.05378 12.3968 8.87389 12.3968C8.31879 12.4071 7.75855 12.4019 7.20345 12.4019C6.83338 12.4019 6.73573 12.3094 6.73573 11.9342C6.73059 11.1786 6.73059 10.4231 6.73573 9.66755C6.73573 9.28206 6.83338 9.18955 7.21373 9.18955C7.78425 9.18955 8.35477 9.1844 8.92528 9.19468C9.06406 9.19468 9.11032 9.16899 9.11032 9.01993C9.10004 8.41857 9.08976 7.81722 9.11546 7.21586C9.15657 6.09024 9.50094 5.08798 10.3953 4.34785C11.0223 3.82873 11.7676 3.57688 12.5694 3.54604C13.3301 3.5152 14.0959 3.53062 14.8566 3.53576C15.1187 3.53576 15.2267 3.64884 15.2267 3.91611C15.2318 4.66138 15.2318 5.40151 15.2267 6.14678C15.2267 6.45003 15.129 6.55283 14.8258 6.56311C14.3067 6.57339 13.7875 6.57339 13.2684 6.58367C12.6825 6.59394 12.4409 6.82524 12.4306 7.41117C12.4203 7.94057 12.4306 8.47511 12.4255 9.00451C12.4255 9.13815 12.4717 9.15871 12.59 9.15871C13.2736 9.15357 13.9623 9.15357 14.6459 9.15871C15.0468 9.15871 15.1496 9.25636 15.1496 9.65727C15.1496 10.418 15.1496 11.1838 15.1496 11.9445C15.1496 12.2991 15.0622 12.3865 14.7076 12.3865C14.0291 12.3916 13.3507 12.3968 12.6722 12.3814C12.4615 12.3762 12.4255 12.4482 12.4306 12.6384C12.4255 13.656 12.4203 14.6789 12.4203 15.7068Z" fill="white"/>
</svg>
