<svg width="20" height="19" viewBox="0 0 20 19" fill="none" xmlns="http://www.w3.org/2000/svg">
<g clip-path="url(#clip0_7_77)">
<path d="M18.4234 5.8263C18.4234 8.11592 18.4234 10.4055 18.4234 12.6951C18.4145 12.7709 18.4012 12.8466 18.3923 12.9223C18.3477 13.2965 18.3299 13.6751 18.2542 14.0448C17.9156 15.6752 16.9935 16.8334 15.4256 17.4436C14.6728 17.7376 13.8843 17.8178 13.087 17.8223C11.2829 17.8401 9.47436 17.8579 7.67029 17.849C6.78385 17.8445 5.89295 17.8401 5.01987 17.6307C3.60779 17.2877 2.55653 16.4859 1.9329 15.1629C1.54982 14.3478 1.42954 13.4747 1.42063 12.5838C1.40282 10.7396 1.38054 8.89545 1.39391 7.05129C1.39836 6.27621 1.44736 5.49222 1.55872 4.72604C1.74136 3.53224 2.31599 2.53889 3.29152 1.80835C4.12897 1.18027 5.10005 0.930814 6.12458 0.859542C6.5344 0.832815 6.94421 0.814997 7.35402 0.792725C9.05564 0.792725 10.7573 0.792725 12.4544 0.792725C12.8509 0.814997 13.2518 0.83727 13.6482 0.859542C14.3431 0.899632 15.0291 1.0199 15.6661 1.30945C17.2341 2.01326 18.0626 3.27388 18.321 4.93986C18.3655 5.2294 18.3923 5.52785 18.4234 5.8263ZM9.91536 16.3523C9.91536 16.3434 9.91536 16.3345 9.91536 16.3256C10.3653 16.3256 10.8152 16.3389 11.2651 16.3211C12.2361 16.2855 13.2117 16.2988 14.1739 16.1786C15.4879 16.0137 16.3744 15.2565 16.6951 13.9468C16.8243 13.4168 16.8688 12.86 16.8777 12.312C16.9089 10.7352 16.9178 9.15827 16.9089 7.57692C16.9045 6.74839 16.8777 5.91985 16.7797 5.10022C16.6194 3.72378 15.7552 2.79279 14.3921 2.52107C13.8086 2.40525 13.2028 2.36962 12.6059 2.36071C11.0156 2.33843 9.42536 2.33398 7.83956 2.3518C7.08675 2.36071 6.32503 2.38743 5.58113 2.49434C4.27597 2.68143 3.38952 3.53224 3.12671 4.81513C3.01089 5.37195 2.97525 5.95103 2.96189 6.51675C2.93071 7.89319 2.9218 9.27408 2.93516 10.6505C2.94407 11.6038 2.9708 12.5615 3.06434 13.5103C3.15789 14.4858 3.62561 15.2832 4.49869 15.7866C5.03323 16.0939 5.62568 16.2231 6.23594 16.2454C7.46093 16.3033 8.69037 16.3211 9.91536 16.3523Z" fill="white"/>
<path d="M5.53211 9.32757C5.52766 6.90878 7.501 4.93989 9.91979 4.94434C12.343 4.9488 14.2896 6.89096 14.2986 9.31866C14.3119 11.733 12.343 13.7108 9.91979 13.7152C7.50545 13.7152 5.53657 11.7508 5.53211 9.32757ZM7.07782 9.3142C7.06891 10.8866 8.32953 12.1606 9.90197 12.1695C11.4789 12.1784 12.7484 10.9223 12.7618 9.34984C12.7751 7.76849 11.51 6.49005 9.93315 6.4856C8.35626 6.48114 7.08673 7.73731 7.07782 9.3142Z" fill="white"/>
<path d="M15.4969 4.76175C15.5013 5.32747 15.0559 5.78629 14.4946 5.79074C13.9244 5.79519 13.4612 5.34084 13.4567 4.77512C13.4522 4.20939 13.9021 3.75504 14.4634 3.74613C15.038 3.74167 15.4924 4.18712 15.4969 4.76175Z" fill="white"/>
</g>
<defs>
<clipPath id="clip0_7_77">
<rect width="18.2456" height="18.2456" fill="white" transform="translate(0.761353 0.23584)"/>
</clipPath>
</defs>
</svg>
