<svg width="18" height="18" viewBox="0 0 18 18" fill="none" xmlns="http://www.w3.org/2000/svg">
<g clip-path="url(#clip0_7_67)">
<path d="M0.563782 8.38254C0.700843 8.09986 0.95355 7.94994 1.23196 7.84287C2.32845 7.41455 3.4335 6.9948 4.53 6.57505C8.29918 5.13162 12.0684 3.68819 15.8418 2.24476C15.9318 2.2105 16.026 2.18052 16.116 2.16767C16.6214 2.09485 16.9812 2.39896 16.964 2.93435C16.9555 3.28129 16.8784 3.63251 16.8056 3.97516C16.0303 7.62442 15.2508 11.2694 14.4712 14.9144C14.4327 15.0986 14.3684 15.287 14.2828 15.4541C14.1157 15.7796 13.8245 15.9038 13.4733 15.7967C13.3019 15.7453 13.1306 15.6682 12.985 15.5654C11.8071 14.7131 10.6378 13.8522 9.46849 12.9955C9.42137 12.9613 9.37426 12.927 9.31429 12.8884C9.26718 12.9313 9.22435 12.9655 9.18152 13.0041C8.58187 13.5737 7.98223 14.1477 7.38687 14.7216C7.21126 14.893 7.00567 14.9915 6.73154 14.9872C6.74868 14.7559 6.76153 14.5289 6.77866 14.3019C6.85147 13.2996 6.92 12.2974 6.9971 11.2994C7.00138 11.2266 7.0485 11.1366 7.10418 11.0852C9.37426 9.04215 11.6486 6.99908 13.923 4.95601C13.9401 4.94316 13.9615 4.93031 13.9701 4.91318C14.0129 4.83608 14.0515 4.7547 14.0943 4.67332C13.9958 4.65619 13.893 4.60479 13.8031 4.62192C13.6917 4.64334 13.5846 4.70759 13.4861 4.76755C10.6549 6.5365 7.82803 8.30545 5.00114 10.0701C4.9369 10.1087 4.83838 10.1301 4.76985 10.1087C3.56628 9.74031 2.367 9.36339 1.16343 8.99075C0.919285 8.91366 0.69656 8.80658 0.563782 8.57529C0.563782 8.50676 0.563782 8.44251 0.563782 8.38254Z" fill="white"/>
</g>
<defs>
<clipPath id="clip0_7_67">
<rect width="17.5439" height="17.5439" fill="white" transform="translate(0.00695801 0.23584)"/>
</clipPath>
</defs>
</svg>
