<svg width="25" height="25" viewBox="0 0 25 25" fill="none" xmlns="http://www.w3.org/2000/svg">
<path d="M22.8675 7.58791C22.6403 6.30638 21.8481 5.48504 20.6248 5.24621C20.118 5.14718 19.5996 5.10058 19.087 5.05981C16.9026 4.8967 14.7182 4.86758 12.5337 4.86758C12.1085 4.86758 11.6774 4.86175 11.2464 4.86758C9.0911 4.90253 6.93581 4.92001 4.78634 5.18796C3.57472 5.33941 2.66018 6.09085 2.3631 7.20927C2.26989 7.55878 2.21164 7.91411 2.16504 8.27527C1.95534 9.97038 1.89709 11.6771 1.94951 13.3839C1.99029 14.6305 2.04854 15.877 2.29319 17.1061C2.54367 18.3411 3.35919 19.1624 4.56499 19.3663C5.28147 19.4886 5.99796 19.5469 6.72028 19.5876C8.93382 19.7158 11.1474 19.7624 13.3667 19.7391C15.5803 19.7158 17.7996 19.6925 20.0074 19.4595C20.5724 19.4012 21.1316 19.308 21.6267 18.9876C22.4364 18.4634 22.7743 17.6828 22.9083 16.7683C23.0947 15.5159 23.1704 14.2577 23.1937 12.9936C23.2345 11.1878 23.1879 9.38204 22.8675 7.58791ZM10.46 15.4926V9.11991C12.3066 10.1801 14.1356 11.2344 15.9939 12.3062C14.1415 13.3722 12.3124 14.4208 10.46 15.4926Z" fill="white"/>
</svg>
