<svg width="177" height="295" viewBox="0 0 177 295" fill="none" xmlns="http://www.w3.org/2000/svg">
<path d="M88.7107 0.163086C81.8596 7.93755 77.6843 18.1075 77.6843 29.2769C78.0886 53.7981 81.0951 78.2898 81.3598 102.76C81.9037 125.613 75.0527 147.07 66.7167 168.012C63.938 173.795 60.9388 179.453 57.9323 185.126L49.1112 183.348C41.1501 181.761 35.975 174.023 37.5702 166.065C38.9595 159.106 45.0902 154.234 51.9266 154.234L55.1463 154.58L47.9644 94.6177C45.6195 67.9435 31.8438 44.5025 11.5772 29.2916C8.09286 26.6756 4.39533 24.2801 0.550781 22.1711V235.05H49.7139C53.3894 254.964 64.3717 272.38 79.8087 284.284C83.4769 286.812 86.5569 290.148 88.7695 294.042C90.9748 290.148 94.0549 286.812 97.7303 284.284C113.167 272.35 124.15 254.972 127.825 235.05H176.988V22.1711C173.144 24.2801 169.446 26.6756 165.962 29.2916C145.673 44.5246 131.927 67.9435 129.575 94.6177L122.393 154.58L125.612 154.234C132.449 154.264 138.58 159.099 139.969 166.065C141.557 174.023 136.382 181.753 128.428 183.348L119.607 185.126C116.6 179.461 113.594 173.803 110.822 168.012C102.479 147.084 95.628 125.627 96.1719 102.76C96.4366 78.2164 99.4431 53.7466 99.8474 29.2769C99.8474 18.1075 95.6721 7.96694 88.821 0.163086H88.7107ZM15.2012 52.8501C24.7134 64.0122 31.1013 77.9077 32.9905 93.2142L38.8713 142.668C31.3366 146.416 25.6396 153.294 23.4784 161.619H15.1498V52.8648L15.2012 52.8501ZM162.22 52.8501V161.604H153.892C151.745 153.286 146.033 146.408 138.499 142.653L144.379 93.1995C146.283 77.9077 152.671 63.9975 162.169 52.8281L162.22 52.8501ZM88.7107 152.272C92.6582 165.183 98.0905 177.477 104.846 188.852C98.4213 190.799 92.8346 194.591 88.7107 199.698C84.5868 194.591 79.0001 190.806 72.5754 188.844C79.3309 177.447 84.7633 165.183 88.7107 152.272ZM15.2012 176.33H23.5299C26.1541 186.478 34.0785 194.488 44.1125 197.288L51.1768 198.897C49.2876 205.746 48.2511 212.932 48.2511 220.427H15.1718V176.338L15.2012 176.33ZM153.914 176.33H162.242V220.42H129.163C129.163 212.969 128.127 205.746 126.237 198.89L133.302 197.28C143.372 194.481 151.289 186.464 153.884 176.323L153.914 176.33ZM65.5552 202.27C74.4719 203.526 81.3451 211.161 81.3451 220.413H62.9677C62.9677 214.115 63.9013 208.038 65.5552 202.27ZM111.844 202.27C113.498 208.038 114.432 214.1 114.432 220.413H96.0543C96.0543 211.146 102.927 203.526 111.844 202.27ZM64.6511 235.117H81.3598V266.053C73.2737 257.565 67.393 246.947 64.6511 235.117ZM96.0617 235.117H112.77C110.065 246.947 104.17 257.58 96.0617 266.053V235.117Z" fill="white"/>
</svg>
