<svg width="225" height="106" viewBox="0 0 225 106" fill="none" xmlns="http://www.w3.org/2000/svg">
<path d="M145.681 81.7562L161.26 81.5359L181.455 86.0346L180.615 105.264L184.405 105.544L185.206 86.8315L202.368 90.5545L203.13 86.8315L185.504 83.0136L186.298 73.5014L182.511 73.1855L181.758 82.2089L161.652 77.7299L145.56 77.9574L145.383 72.4006L141.585 72.5216L141.76 78.0112L85.4915 78.8069V73.1667H81.6914V78.8606L41.2907 79.432L40.7861 73.1904L36.9984 73.4966L37.4881 79.555L16.416 80.5237L16.6017 84.3193L37.7619 83.3463L39.23 105.784L43.0226 105.544L41.5621 83.2286L81.6914 82.6611V87.7131H85.4915V82.6074L141.881 81.81L142.061 87.4803L145.86 87.3593L145.681 81.7562Z" fill="#84848E"/>
<path d="M150.844 29.2014V30.7773L151.643 31.5652H155.572L156.36 30.7773V29.2014H154.784V30.2257H152.42V29.2014H150.844Z" fill="white"/>
<path d="M65.6015 47.0198H75.7678L77.1994 45.5882V42.6835H74.3155V44.1151H67.0746V35.4011H74.3155V36.8535H77.1994V33.9696L75.7678 32.4965H65.6015L64.1699 33.9696V45.5882L65.6015 47.0198Z" fill="white"/>
<path fill-rule="evenodd" clip-rule="evenodd" d="M77.1203 66.2964H64.1699V50.0795H77.9312V53.3229H67.4133V56.5894H77.1203L78.7188 58.2111V64.6979L77.1203 66.2964ZM67.4133 63.053H75.4986V59.8328H67.4133V63.053Z" fill="white"/>
<path fill-rule="evenodd" clip-rule="evenodd" d="M83.8103 66.2964H80.567V54.9677L85.4089 50.0795H95.1159V66.2964H91.8957V61.4545H83.8103V66.2964ZM83.8103 58.2111H91.8957V53.3229H87.0306L83.8103 56.5894V58.2111Z" fill="white"/>
<path fill-rule="evenodd" clip-rule="evenodd" d="M97.4273 66.2964H100.671V61.4545H110.378L111.976 59.8328V51.7244L110.378 50.0795H97.4273V66.2964ZM108.756 58.2111H100.671V53.3229H108.756V58.2111Z" fill="white"/>
<path d="M117.299 66.2964H114.056V50.0795H117.299V60.8753L125.385 50.0795H128.605V66.2964H125.385V55.4774L117.299 66.2964Z" fill="white"/>
<path d="M130.911 66.2964H134.154V53.3229H143.332V50.0795H130.911V66.2964Z" fill="white"/>
<path d="M147.199 66.2964V63.053H153.686L156.929 59.8328H150.442L145.6 54.9677V50.0795H148.844V53.346L152.064 56.5894H156.929V50.0795H160.149V61.4545L155.307 66.2964H147.199Z" fill="white"/>
<path d="M81.9667 47.0198H79.062V32.4965H92.0915V47.0198H89.2076V35.4011H81.9667V47.0198Z" fill="white"/>
<path d="M94.1567 47.0198H97.0613V32.4965H94.1567V47.0198Z" fill="white"/>
<path d="M102.046 47.0198H99.1409V32.4965H102.046V42.1649L109.287 32.4965H112.17V47.0198H109.287V37.3307L102.046 47.0198Z" fill="white"/>
<path d="M114.236 47.0198H117.14V37.2269L121.02 42.808H123.448L127.244 37.2269V47.0198H130.149V32.4965H127.348L122.203 39.5299L117.14 32.4965H114.236V47.0198Z" fill="white"/>
<path fill-rule="evenodd" clip-rule="evenodd" d="M134.925 47.0198H132.02V36.8742L136.356 32.4965H145.05V47.0198H142.166V42.6835H134.925V47.0198ZM134.925 39.7789H142.166V35.4011H137.809L134.925 38.3266V39.7789Z" fill="white"/>
<path d="M147.12 47.0198H150.024L157.265 37.3307V47.0198H160.149V32.4965H157.265L150.024 42.1649V32.4965H147.12V47.0198Z" fill="white"/>
<path d="M102.711 30.7773V29.2014H104.287V30.2257H106.651V29.2014H108.227V30.7773L107.439 31.5652H103.51L102.711 30.7773Z" fill="white"/>
<path d="M57.2565 102.306H61.7813V96.8603H57.2565V102.306ZM62.6889 104.121H56.336L55.4414 103.226V95.9657L56.336 95.0452H62.6889L63.5834 95.9657V103.226L62.6889 104.121Z" fill="white"/>
<path d="M69.4765 104.121H67.6614V96.8603H64.485V95.0452H72.627V96.8603H69.4765V104.121Z" fill="white"/>
<path d="M75.3493 99.5959H79.8741V96.8603H75.3493V99.5959ZM75.3493 104.121H73.5342V95.0452H80.7816L81.6762 95.9657V100.503L80.7816 101.411H75.3493V104.121Z" fill="white"/>
<path d="M84.6552 104.121H82.8401V95.0452H84.6552V101.087L89.18 95.0452H90.9822V104.121H89.18V98.0661L84.6552 104.121Z" fill="white"/>
<path d="M94.0878 104.121H92.2727V95.0452H94.0878L97.2513 99.4404L100.467 95.0452H102.217V104.121H100.402V98.0012L98.0292 101.489H96.5122L94.0878 98.0012V104.121Z" fill="white"/>
<path d="M105.201 99.5959H109.726V96.8603H107.003L105.201 98.6884V99.5959ZM105.201 104.121H103.386V97.7808L106.096 95.0452H111.528V104.121H109.726V101.411H105.201V104.121Z" fill="white"/>
<path d="M113.716 93.2431V91.428H115.531V92.6078H118.254V91.428H120.069V93.2431L119.162 94.1506H114.637L113.716 93.2431ZM114.637 104.121H112.822V95.0452H114.637V101.087L119.162 95.0452H120.964V104.121H119.162V98.0661L114.637 104.121Z" fill="white"/>
<path d="M130.993 104.121H129.178V95.0454H136.88V96.8605H130.993V104.121Z" fill="white"/>
<path d="M139.603 99.5961H144.128V96.8605H139.603V99.5961ZM139.603 104.121H137.788V95.0454H145.035L145.93 95.9659V100.504L145.035 101.411H139.603V104.121Z" fill="white"/>
<path d="M148.909 102.306H153.434V96.8605H148.909V102.306ZM154.341 104.121H147.988L147.094 103.226V95.9659L147.988 95.0454H154.341L155.236 95.9659V103.226L154.341 104.121Z" fill="white"/>
<path d="M167.391 104.121H156.526V95.0454H158.341V102.306H161.051V95.0454H162.866V102.306H165.589V95.0454H167.391V104.121Z" fill="white"/>
<path d="M170.509 104.121H168.694V95.0454H170.509V104.121Z" fill="white"/>
<path d="M220.944 60.1724L221.606 67.9889L213.241 65.8936L202.61 72.3772L190.654 69.4956L191.64 63.5879L194.156 64.0249L195.693 55.9178L197.874 53.4846L203.133 57.5079L210.807 61.0644L203.828 56.6975L198.768 51.9123L195.211 40.9627L193.314 41.4736L194.147 44.1021L190.619 50.033L187.405 49.8295L184.885 34.5787L200.976 29.4778L216.16 45.1078L224.386 44.9911L220.944 60.1724Z" fill="#FFA63E"/>
<path d="M178.417 61.7949L178.23 67.8038L189.033 68.7846L190.05 63.3202L178.417 61.7949Z" fill="#FFA63E"/>
<path d="M176.646 60.3965L177.48 53.5031L193.984 55.7112L192.803 62.0872L176.646 60.3965Z" fill="#FFA63E"/>
<path d="M178.42 31.119L177.151 41.6162L184.409 42.2646L182.929 33.5967L186.387 32.2981L178.42 31.119Z" fill="#FFA63E"/>
<path d="M176.678 52.3268L177.777 43.2368L184.736 44.0781L186.069 51.3127L191.373 51.7653L194.928 45.9132L196.739 51.667L194.67 54.2084L176.678 52.3268Z" fill="#FFA63E"/>
<path d="M3.99313 60.1724L3.3317 67.9889L11.6965 65.8936L22.3279 72.3772L34.2834 69.4956L33.2971 63.5879L30.7816 64.0249L29.2444 55.9178L27.0631 53.4846L21.8041 57.5079L14.1309 61.0644L21.1099 56.6975L26.1697 51.9123L29.7264 40.9627L31.6235 41.4736L30.7905 44.1021L34.3183 50.033L37.533 49.8295L40.0525 34.5787L23.9612 29.4778L8.77715 45.1078L0.551434 44.9911L3.99313 60.1724Z" fill="#FFA63E"/>
<path d="M46.5203 61.7949L46.7079 67.8038L35.9048 68.7846L34.8871 63.3202L46.5203 61.7949Z" fill="#FFA63E"/>
<path d="M48.291 60.3965L47.4577 53.5031L30.9538 55.7112L32.1348 62.0872L48.291 60.3965Z" fill="#FFA63E"/>
<path d="M46.5179 31.119L47.7869 41.6162L40.5288 42.2646L42.0088 33.5967L38.5505 32.2981L46.5179 31.119Z" fill="#FFA63E"/>
<path d="M48.2591 52.3268L47.1602 43.2368L40.201 44.0781L38.8685 51.3127L33.5644 51.7653L30.0096 45.9132L28.1984 51.667L30.2673 54.2084L48.2591 52.3268Z" fill="#FFA63E"/>
<path d="M147.013 18.144L187.449 17.4108L185.875 27.9089L189.633 28.4724L191.298 17.3703L208.707 17.3703V13.5702H191.931L193.787 1.91966L190.047 1.25085L188.066 13.5988L147.329 14.3375L147.881 7.67497L144.094 7.36122L143.51 14.4068L82.9807 15.5043L82.2521 7.76246L78.4688 8.11853L79.1703 15.5734L62.2846 15.8796L36.2106 11.4382L34.495 0.666992L30.74 1.25085L32.2803 10.8949L16.6015 8.11853L16.1465 11.8913L32.8754 14.7944L34.8943 28.4682L38.6536 27.9131L36.8053 15.3944L61.9975 19.6856L79.5274 19.3677L80.1555 26.0409L83.9388 25.6849L83.3378 19.2986L143.195 18.2132L142.592 25.4854L146.379 25.7991L147.013 18.144Z" fill="#84848E"/>
</svg>
